<?xml version="1.0" encoding="utf-8"?>
<svg viewBox="7.0821 92.0195 488.305 341.8925" xmlns="http://www.w3.org/2000/svg">
  <g id="g7433" transform="matrix(4.0222649574279785, 0, 0, 4.0222649574279785, 7.082064362825861, 92.0195034748167)" style="">
    <path id="path7429" d="M118.9 13.3c-1.4-5.2-5.5-9.3-10.7-10.7C98.7 0 60.7 0 60.7 0s-38 0-47.5 2.5C8.1 3.9 3.9 8.1 2.5 13.3 0 22.8 0 42.5 0 42.5s0 19.8 2.5 29.2C3.9 76.9 8 81 13.2 82.4 22.8 85 60.7 85 60.7 85s38 0 47.5-2.5c5.2-1.4 9.3-5.5 10.7-10.7 2.5-9.5 2.5-29.2 2.5-29.2s.1-19.8-2.5-29.3z" fill="red"/>
    <path id="polygon7431" fill="#fff" d="M48.6 24.3v36.4l31.6-18.2z"/>
  </g>
</svg>